<svg width="30" height="31" viewBox="0 0 30 31" fill="none" xmlns="http://www.w3.org/2000/svg">
<path d="M13.5484 3.50721V1.57173C13.5484 1.18674 13.7013 0.817515 13.9736 0.545285C14.2458 0.273055 14.615 0.120117 15 0.120117C15.385 0.120117 15.7542 0.273055 16.0264 0.545285C16.2987 0.817515 16.4516 1.18674 16.4516 1.57173V3.50721C16.4516 3.89221 16.2987 4.26143 16.0264 4.53366C15.7542 4.80589 15.385 4.95883 15 4.95883C14.615 4.95883 14.2458 4.80589 13.9736 4.53366C13.7013 4.26143 13.5484 3.89221 13.5484 3.50721ZM23.2258 15.1201C23.2258 16.747 22.7434 18.3374 21.8395 19.6901C20.9356 21.0429 19.6509 22.0972 18.1479 22.7198C16.6448 23.3424 14.9909 23.5053 13.3952 23.1879C11.7996 22.8705 10.3339 22.087 9.18348 20.9366C8.03308 19.7862 7.24964 18.3205 6.93225 16.7249C6.61486 15.1292 6.77775 13.4753 7.40035 11.9722C8.02294 10.4692 9.07726 9.18447 10.43 8.28061C11.7827 7.37675 13.3731 6.89431 15 6.89431C17.1809 6.89655 19.2719 7.76392 20.814 9.30607C22.3562 10.8482 23.2236 12.9392 23.2258 15.1201ZM20.3226 15.1201C20.3226 14.0674 20.0104 13.0383 19.4256 12.163C18.8407 11.2878 18.0094 10.6055 17.0369 10.2027C16.0643 9.79984 14.9941 9.69444 13.9616 9.89981C12.9291 10.1052 11.9807 10.6121 11.2364 11.3565C10.492 12.1009 9.98506 13.0493 9.77969 14.0817C9.57432 15.1142 9.67972 16.1844 10.0826 17.157C10.4854 18.1296 11.1676 18.9608 12.0429 19.5457C12.9182 20.1305 13.9473 20.4427 15 20.4427C16.4111 20.4411 17.764 19.8798 18.7619 18.882C19.7597 17.8842 20.321 16.5313 20.3226 15.1201ZM5.74718 7.92133C5.88221 8.05635 6.04251 8.16347 6.21893 8.23654C6.39535 8.30962 6.58444 8.34723 6.7754 8.34723C6.96636 8.34723 7.15545 8.30962 7.33187 8.23654C7.5083 8.16347 7.6686 8.05635 7.80363 7.92133C7.93866 7.7863 8.04577 7.626 8.11884 7.44957C8.19192 7.27315 8.22953 7.08406 8.22953 6.8931C8.22953 6.70214 8.19192 6.51305 8.11884 6.33663C8.04577 6.16021 7.93866 5.9999 7.80363 5.86488L6.35202 4.41326C6.07931 4.14056 5.70945 3.98736 5.32379 3.98736C4.93813 3.98736 4.56827 4.14056 4.29556 4.41326C4.02286 4.68597 3.86966 5.05583 3.86966 5.44149C3.86966 5.82715 4.02286 6.19701 4.29556 6.46971L5.74718 7.92133ZM5.74718 22.3165L4.29556 23.7681C4.16054 23.9031 4.05343 24.0634 3.98035 24.2399C3.90727 24.4163 3.86966 24.6054 3.86966 24.7963C3.86966 24.9873 3.90727 25.1764 3.98035 25.3528C4.05343 25.5292 4.16054 25.6895 4.29556 25.8246C4.56827 26.0973 4.93813 26.2505 5.32379 26.2505C5.51475 26.2505 5.70384 26.2128 5.88026 26.1398C6.05669 26.0667 6.21699 25.9596 6.35202 25.8246L7.80363 24.3729C8.07633 24.1002 8.22953 23.7304 8.22953 23.3447C8.22953 22.9591 8.07633 22.5892 7.80363 22.3165C7.53093 22.0438 7.16106 21.8906 6.7754 21.8906C6.38974 21.8906 6.01988 22.0438 5.74718 22.3165ZM23.2258 8.34592C23.4165 8.34607 23.6053 8.30865 23.7816 8.2358C23.9578 8.16294 24.1179 8.05609 24.2528 7.92133L25.7044 6.46971C25.8395 6.33469 25.9466 6.17438 26.0196 5.99796C26.0927 5.82154 26.1303 5.63245 26.1303 5.44149C26.1303 5.25053 26.0927 5.06144 26.0196 4.88502C25.9466 4.70859 25.8395 4.54829 25.7044 4.41326C25.5694 4.27823 25.4091 4.17112 25.2327 4.09805C25.0563 4.02497 24.8672 3.98736 24.6762 3.98736C24.4853 3.98736 24.2962 4.02497 24.1197 4.09805C23.9433 4.17112 23.783 4.27823 23.648 4.41326L22.1964 5.86488C21.9921 6.06791 21.8529 6.32709 21.7964 6.60947C21.7399 6.89185 21.7687 7.18465 21.879 7.45064C21.9894 7.71663 22.1764 7.94378 22.4162 8.1032C22.656 8.26262 22.9378 8.34711 23.2258 8.34592ZM24.2528 22.3189C23.9801 22.0462 23.6103 21.893 23.2246 21.893C22.8389 21.893 22.4691 22.0462 22.1964 22.3189C21.9237 22.5916 21.7705 22.9615 21.7705 23.3471C21.7705 23.7328 21.9237 24.1027 22.1964 24.3754L23.648 25.827C23.9207 26.0997 24.2906 26.2529 24.6762 26.2529C25.0619 26.2529 25.4317 26.0997 25.7044 25.827C25.9771 25.5543 26.1303 25.1844 26.1303 24.7987C26.1303 24.4131 25.9771 24.0432 25.7044 23.7705L24.2528 22.3189ZM4.83871 15.1201C4.83871 14.7351 4.68577 14.3659 4.41354 14.0937C4.14131 13.8214 3.77209 13.6685 3.3871 13.6685H1.45161C1.06662 13.6685 0.697398 13.8214 0.425168 14.0937C0.152937 14.3659 0 14.7351 0 15.1201C0 15.5051 0.152937 15.8743 0.425168 16.1466C0.697398 16.4188 1.06662 16.5717 1.45161 16.5717H3.3871C3.77209 16.5717 4.14131 16.4188 4.41354 16.1466C4.68577 15.8743 4.83871 15.5051 4.83871 15.1201ZM15 25.2814C14.615 25.2814 14.2458 25.4343 13.9736 25.7066C13.7013 25.9788 13.5484 26.348 13.5484 26.733V28.6685C13.5484 29.0535 13.7013 29.4227 13.9736 29.6949C14.2458 29.9672 14.615 30.1201 15 30.1201C15.385 30.1201 15.7542 29.9672 16.0264 29.6949C16.2987 29.4227 16.4516 29.0535 16.4516 28.6685V26.733C16.4516 26.348 16.2987 25.9788 16.0264 25.7066C15.7542 25.4343 15.385 25.2814 15 25.2814ZM28.5484 13.6685H26.6129C26.2279 13.6685 25.8587 13.8214 25.5865 14.0937C25.3142 14.3659 25.1613 14.7351 25.1613 15.1201C25.1613 15.5051 25.3142 15.8743 25.5865 16.1466C25.8587 16.4188 26.2279 16.5717 26.6129 16.5717H28.5484C28.9334 16.5717 29.3026 16.4188 29.5748 16.1466C29.8471 15.8743 30 15.5051 30 15.1201C30 14.7351 29.8471 14.3659 29.5748 14.0937C29.3026 13.8214 28.9334 13.6685 28.5484 13.6685Z" fill="black"/>
</svg>
